<svg xmlns="http://www.w3.org/2000/svg" xmlns:xlink="http://www.w3.org/1999/xlink" width="234.995" height="55.268" viewBox="0 0 234.995 55.268">
  <defs>
    <clipPath id="clip-path">
      <path id="Path_3" data-name="Path 3" d="M13.979,54.853h0C-10.744,49.449-.094-5.284,25.872.411h0C50.6,5.815,39.959,60.522,13.979,54.853Z" transform="translate(-0.003 0.004)" fill="none"/>
    </clipPath>
  </defs>
  <g id="Group_1537" data-name="Group 1537" transform="translate(-52.173 -188.559)">
    <g id="Group_1488" data-name="Group 1488">
      <g id="Group_11" data-name="Group 11" transform="translate(52.173 188.559)">
        <g id="Group_1" data-name="Group 1" clip-path="url(#clip-path)">
          <g id="Group_10" data-name="Group 10" transform="translate(1.415 -0.501)">
            <path id="Path_53" data-name="Path 53" d="M1.412,24.624a.674.674,0,0,0-.238.938h0A27.34,27.34,0,0,0,14.587,36.874h0a.674.674,0,0,0,.885-.383h0a.687.687,0,0,0-.383-.885A25.953,25.953,0,0,1,2.3,24.849a.687.687,0,0,0-.938-.225Z" transform="translate(-1.074 8.389)" fill="#254282"/>
            <path id="Path_54" data-name="Path 54" d="M4.992,7a.674.674,0,0,0-.317-.912h0a.687.687,0,0,0-.912.317,22.807,22.807,0,0,0-1.876,5.51A23.191,23.191,0,0,0,38.5,35.157a.687.687,0,0,0,.132-.965h0a.687.687,0,0,0-.951-.132h0A21.83,21.83,0,0,1,2.838,14.913a21.275,21.275,0,0,1,1.1-5.365A23.785,23.785,0,0,1,4.992,7.011Z" transform="translate(-0.967 2.441)" fill="#254282"/>
            <path id="Path_55" data-name="Path 55" d="M20.924.969h0a.674.674,0,0,0,.542-.793.687.687,0,0,0-.753-.555h0A18.962,18.962,0,0,0,24.6,37.281l.885-.066a3.651,3.651,0,0,0,.912-.119l.9-.145q.436-.079.872-.2a.687.687,0,0,0,.515-.819.7.7,0,0,0-.832-.515c-.277.079-.555.132-.832.185l-.806.2-.819.092h-.846A17.588,17.588,0,0,1,20.924.969Z" transform="translate(0.121 0.383)" fill="#254282"/>
            <path id="Path_56" data-name="Path 56" d="M14.209,34.018a.727.727,0,0,0-.529.079h0a.687.687,0,0,0-.3.41h0a.674.674,0,0,0,.066.529h0a.687.687,0,0,0,.423.317h0c.674.172,1.321.317,2.035.436s1.321.225,2.048.291,1.321.119,2.075.132,1.387,0,2.075,0a21.257,21.257,0,0,0,2.55-.251c.846-.119,1.691-.291,2.524-.489s1.652-.436,2.471-.714a25.029,25.029,0,0,0,2.392-.951.687.687,0,0,0,.317-.912.674.674,0,0,0-.885-.33c-.74.33-1.506.634-2.273.9h0a23.665,23.665,0,0,1-2.339.674c-.793.2-1.586.344-2.392.462s-1.612.2-2.431.238-1.321,0-1.969,0a19.439,19.439,0,0,1-1.969-.132c-.661-.066-1.321-.159-1.956-.264s-1.321-.264-1.929-.423Z" transform="translate(2.872 10.954)" fill="#254282"/>
            <path id="Path_57" data-name="Path 57" d="M21.446,4.784a11.893,11.893,0,1,0,8.589,3.066,11.893,11.893,0,0,0-8.589-3.066ZM14.337,9.713a10.32,10.32,0,1,1-2.088,3.475A10.571,10.571,0,0,1,14.337,9.713Z" transform="translate(1.845 2.039)" fill="#254282"/>
            <path id="Path_58" data-name="Path 58" d="M24.595,27.094a.686.686,0,0,0,.555,1.255,18.936,18.936,0,0,0,6.607-4.9.689.689,0,0,0-1.044-.9,16.954,16.954,0,0,1-2.8,2.643,17.561,17.561,0,0,1-3.3,1.929Z" transform="translate(6.36 7.677)" fill="#254282"/>
            <path id="Path_59" data-name="Path 59" d="M20.8,7.353a8.51,8.51,0,1,0,3.277.489A8.378,8.378,0,0,0,20.8,7.353ZM16,11.132A7,7,0,1,1,14.59,13.5,7.255,7.255,0,0,1,16,11.132Z" transform="translate(2.662 2.866)" fill="#254282"/>
            <path id="Path_60" data-name="Path 60" d="M7.527,38.556a.687.687,0,0,0-.912.317.7.7,0,0,0,.317.912q.991.5,2.022.912c.7.277,1.387.542,2.088.78s1.427.462,2.141.661,1.427.37,2.154.515a.687.687,0,0,0,.819-.529.714.714,0,0,0-.542-.819c-.7-.145-1.387-.3-2.075-.489s-1.321-.4-2.048-.634-1.321-.476-2-.753-1.321-.568-1.956-.872Z" transform="translate(0.687 12.878)" fill="#254282"/>
            <path id="Path_61" data-name="Path 61" d="M3.456,31.6a.7.7,0,0,0-.978,0,.687.687,0,0,0,0,.965A31.621,31.621,0,0,0,25.7,41.1h.793l.806-.079.806-.092.806-.106a.687.687,0,0,0-.211-1.321l-.766.106-.766.079h0l-.753.066h-.78A30.274,30.274,0,0,1,3.456,31.6Z" transform="translate(-0.686 10.599)" fill="#254282"/>
            <path id="Path_62" data-name="Path 62" d="M32.65,7.636a.714.714,0,1,0,.991-1.017,15.328,15.328,0,1,0,3.753,15.764.714.714,0,0,0-.449-.9h0a.7.7,0,0,0-.9.449h0a13.9,13.9,0,1,1-3.409-14.3ZM36.945,21.484Z" transform="translate(1.001 1.209)" fill="#254282"/>
          </g>
        </g>
      </g>
      <g id="Group_11-2" data-name="Group 11" transform="translate(52.173 188.559)">
        <g id="Group_1-2" data-name="Group 1" clip-path="url(#clip-path)">
          <g id="Group_10-2" data-name="Group 10" transform="translate(1.415 -0.501)">
            <path id="Path_53-2" data-name="Path 53" d="M1.412,24.624a.674.674,0,0,0-.238.938h0A27.34,27.34,0,0,0,14.587,36.874h0a.674.674,0,0,0,.885-.383h0a.687.687,0,0,0-.383-.885A25.953,25.953,0,0,1,2.3,24.849a.687.687,0,0,0-.938-.225Z" transform="translate(-1.074 8.389)" fill="#254282"/>
            <path id="Path_54-2" data-name="Path 54" d="M4.992,7a.674.674,0,0,0-.317-.912h0a.687.687,0,0,0-.912.317,22.807,22.807,0,0,0-1.876,5.51A23.191,23.191,0,0,0,38.5,35.157a.687.687,0,0,0,.132-.965h0a.687.687,0,0,0-.951-.132h0A21.83,21.83,0,0,1,2.838,14.913a21.275,21.275,0,0,1,1.1-5.365A23.785,23.785,0,0,1,4.992,7.011Z" transform="translate(-0.967 2.441)" fill="#254282"/>
            <path id="Path_55-2" data-name="Path 55" d="M20.924.969h0a.674.674,0,0,0,.542-.793.687.687,0,0,0-.753-.555h0A18.962,18.962,0,0,0,24.6,37.281l.885-.066a3.651,3.651,0,0,0,.912-.119l.9-.145q.436-.079.872-.2a.687.687,0,0,0,.515-.819.7.7,0,0,0-.832-.515c-.277.079-.555.132-.832.185l-.806.2-.819.092h-.846A17.588,17.588,0,0,1,20.924.969Z" transform="translate(0.121 0.383)" fill="#254282"/>
            <path id="Path_56-2" data-name="Path 56" d="M14.209,34.018a.727.727,0,0,0-.529.079h0a.687.687,0,0,0-.3.41h0a.674.674,0,0,0,.066.529h0a.687.687,0,0,0,.423.317h0c.674.172,1.321.317,2.035.436s1.321.225,2.048.291,1.321.119,2.075.132,1.387,0,2.075,0a21.257,21.257,0,0,0,2.55-.251c.846-.119,1.691-.291,2.524-.489s1.652-.436,2.471-.714a25.029,25.029,0,0,0,2.392-.951.687.687,0,0,0,.317-.912.674.674,0,0,0-.885-.33c-.74.33-1.506.634-2.273.9h0a23.665,23.665,0,0,1-2.339.674c-.793.2-1.586.344-2.392.462s-1.612.2-2.431.238-1.321,0-1.969,0a19.439,19.439,0,0,1-1.969-.132c-.661-.066-1.321-.159-1.956-.264s-1.321-.264-1.929-.423Z" transform="translate(2.872 10.954)" fill="#254282"/>
            <path id="Path_57-2" data-name="Path 57" d="M21.446,4.784a11.893,11.893,0,1,0,8.589,3.066,11.893,11.893,0,0,0-8.589-3.066ZM14.337,9.713a10.32,10.32,0,1,1-2.088,3.475A10.571,10.571,0,0,1,14.337,9.713Z" transform="translate(1.845 2.039)" fill="#254282"/>
            <path id="Path_58-2" data-name="Path 58" d="M24.595,27.094a.686.686,0,0,0,.555,1.255,18.936,18.936,0,0,0,6.607-4.9.689.689,0,0,0-1.044-.9,16.954,16.954,0,0,1-2.8,2.643,17.561,17.561,0,0,1-3.3,1.929Z" transform="translate(6.36 7.677)" fill="#254282"/>
            <path id="Path_59-2" data-name="Path 59" d="M20.8,7.353a8.51,8.51,0,1,0,3.277.489A8.378,8.378,0,0,0,20.8,7.353ZM16,11.132A7,7,0,1,1,14.59,13.5,7.255,7.255,0,0,1,16,11.132Z" transform="translate(2.662 2.866)" fill="#254282"/>
            <path id="Path_60-2" data-name="Path 60" d="M7.527,38.556a.687.687,0,0,0-.912.317.7.7,0,0,0,.317.912q.991.5,2.022.912c.7.277,1.387.542,2.088.78s1.427.462,2.141.661,1.427.37,2.154.515a.687.687,0,0,0,.819-.529.714.714,0,0,0-.542-.819c-.7-.145-1.387-.3-2.075-.489s-1.321-.4-2.048-.634-1.321-.476-2-.753-1.321-.568-1.956-.872Z" transform="translate(0.687 12.878)" fill="#254282"/>
            <path id="Path_61-2" data-name="Path 61" d="M3.456,31.6a.7.7,0,0,0-.978,0,.687.687,0,0,0,0,.965A31.621,31.621,0,0,0,25.7,41.1h.793l.806-.079.806-.092.806-.106a.687.687,0,0,0-.211-1.321l-.766.106-.766.079h0l-.753.066h-.78A30.274,30.274,0,0,1,3.456,31.6Z" transform="translate(-0.686 10.599)" fill="#254282"/>
            <path id="Path_62-2" data-name="Path 62" d="M32.65,7.636a.714.714,0,1,0,.991-1.017,15.328,15.328,0,1,0,3.753,15.764.714.714,0,0,0-.449-.9h0a.7.7,0,0,0-.9.449h0a13.9,13.9,0,1,1-3.409-14.3ZM36.945,21.484Z" transform="translate(1.001 1.209)" fill="#254282"/>
          </g>
        </g>
      </g>
      <path id="Path_4" data-name="Path 4" d="M20.7,9.8a5.286,5.286,0,1,1-3.806,1.321A5.18,5.18,0,0,1,20.7,9.8Z" transform="translate(57.026 191.711)" fill="none"/>
      <path id="Path_5" data-name="Path 5" d="M24.34,11.524A5.267,5.267,0,1,0,25.7,15.357a5.286,5.286,0,0,0-1.361-3.832Z" transform="translate(57.032 191.707)" fill="#2b99fc"/>
      <path id="Path_66" data-name="Path 66" d="M20.946,11.12a2.326,2.326,0,1,1-2.326,2.326h0A2.326,2.326,0,0,1,20.946,11.12Z" transform="translate(58.154 192.138)" fill="#254282"/>
    </g>
    <g id="SYNTIZEN" transform="translate(98.945 202.263)">
      <g id="Group_2" data-name="Group 2" transform="translate(0 0)">
        <path id="Path_6" data-name="Path 6" d="M35.421,36.839V27.378q5.59,6.607,9.342,6.607a4.691,4.691,0,0,0,3.343-1.229A3.872,3.872,0,0,0,49.428,29.7a3.132,3.132,0,0,0-1.084-2.643,13.214,13.214,0,0,0-4.2-1.678,28.649,28.649,0,0,1-5.154-1.757,6.7,6.7,0,0,1-2.643-2.379,6.435,6.435,0,0,1-1-3.634,6.713,6.713,0,0,1,2.18-5.286,7.929,7.929,0,0,1,5.484-1.956,9.422,9.422,0,0,1,5.788,2.035V10.675h3.145V18.6c-3.449-3.224-6.356-4.823-8.708-4.823a4.823,4.823,0,0,0-3.251.991,3,3,0,0,0-1.123,2.3,3.171,3.171,0,0,0,.568,1.863,3.555,3.555,0,0,0,1.48,1.163,29.85,29.85,0,0,0,3.541,1.031,29.586,29.586,0,0,1,4.982,1.691,6.766,6.766,0,0,1,2.643,2.643,7.77,7.77,0,0,1,1.123,4.189,7.162,7.162,0,0,1-2.352,5.484,8.219,8.219,0,0,1-5.8,2.18,9.25,9.25,0,0,1-6.409-2.564v2.088Z" transform="translate(-35.334 -10.367)" fill="#254282"/>
        <path id="Path_7" data-name="Path 7" d="M61.135,36.729V24.836L53.391,13.921H50.22V10.71h5.087l8.047,11.272,5.286-8.008H65.35V10.71h9.091l-9.4,14.179v8.589h3.568v3.251Z" transform="translate(-30.549 -10.256)" fill="#254282"/>
        <path id="Path_8" data-name="Path 8" d="M73.3,36.729V13.974H69.59V10.71h8.893l11.47,20.2V13.974H86.187V10.71h6.858v26.3H89.081L76.527,14.78v18.7h3.713v3.251Z" transform="translate(-24.324 -10.256)" fill="#254282"/>
        <path id="Path_9" data-name="Path 9" d="M97.686,36.729V13.974H92.321v6.607H89.11V10.71h21.143v9.884h-3.224V13.987H101.6V33.478h3.409v3.251Z" transform="translate(-18.05 -10.256)" fill="#254282"/>
        <path id="Path_10" data-name="Path 10" d="M109.828,36.729V13.974H107V10.71h6.779V33.478h2.8v3.251Z" transform="translate(-12.299 -10.256)" fill="#254282"/>
        <path id="Path_11" data-name="Path 11" d="M116.63,36.729V33.478l13.941-19.5H120.462v4.559h-3.185V10.71h18.341v2.881L121.334,33.478h11.417V28.457h3.224v8.272Z" transform="translate(-9.204 -10.256)" fill="#254282"/>
        <path id="Path_12" data-name="Path 12" d="M137.11,36.729V13.974h-3.37V10.71h21.645v7.823h-3.224V13.974H141.047v7.691h9.66v3.3h-9.66v8.51h11.113V28.761h3.224v7.928Z" transform="translate(-3.705 -10.256)" fill="#254282"/>
        <path id="Path_13" data-name="Path 13" d="M155.647,36.729V13.974H152V10.71h8.893l11.351,20.2V13.974h-3.726V10.71h6.871v26.3h-3.964L158.871,14.78v18.7h3.7v3.251Z" transform="translate(2.164 -10.256)" fill="#254282"/>
      </g>
    </g>
    <rect id="Rectangle_1" data-name="Rectangle 1" width="7.07" height="7.07" rx="2.67" transform="translate(279.849 198.144)" fill="none" stroke="#254282" stroke-miterlimit="10" stroke-width="0.5"/>
    <path id="Path_14" data-name="Path 14" d="M177.29,12.416h-.647a.33.33,0,0,1-.291-.145l-.872-1.321-.106-.106h-.5v1.612H174V8.28h1.321a2.286,2.286,0,0,1,.714.092,1.321,1.321,0,0,1,.5.238.872.872,0,0,1,.278.383,1.136,1.136,0,0,1,.092.476,1.1,1.1,0,0,1-.238.74,1.771,1.771,0,0,1-.278.264,1.321,1.321,0,0,1-.4.172l.145.106a.581.581,0,0,1,.106.145Zm-1.969-2.167a1.044,1.044,0,0,0,.37,0,1.084,1.084,0,0,0,.278-.145.555.555,0,0,0,.145-.238.673.673,0,0,0,0-.291.6.6,0,0,0-.2-.476.978.978,0,0,0-.634-.172h-.5v1.321Z" transform="translate(108.095 191.225)" fill="#254282"/>
  </g>
</svg>
